<?xml version="1.0" encoding="UTF-8" standalone="no"?>
<svg
   enable-background="new 0 0 24 24"
   height="24px"
   version="1.1"
   viewBox="0 0 24 24"
   width="24px"
   xml:space="preserve"
   id="svg5"
   sodipodi:docname="1504708_cast_content_iphone 7_icon.svg"
   inkscape:version="1.3.2 (091e20ef0f, 2023-11-25)"
   xmlns:inkscape="http://www.inkscape.org/namespaces/inkscape"
   xmlns:sodipodi="http://sodipodi.sourceforge.net/DTD/sodipodi-0.dtd"
   xmlns="http://www.w3.org/2000/svg"
   xmlns:svg="http://www.w3.org/2000/svg"><defs
     id="defs5" /><sodipodi:namedview
     id="namedview5"
     pagecolor="#ffffff"
     bordercolor="#000000"
     borderopacity="0.25"
     inkscape:showpageshadow="2"
     inkscape:pageopacity="0.0"
     inkscape:pagecheckerboard="0"
     inkscape:deskcolor="#d1d1d1"
     inkscape:zoom="25.007159"
     inkscape:cx="2.259353"
     inkscape:cy="10.477"
     inkscape:window-width="1920"
     inkscape:window-height="1002"
     inkscape:window-x="0"
     inkscape:window-y="193"
     inkscape:window-maximized="1"
     inkscape:current-layer="Filled_Icons_1_" /><g
     id="Filled_Icons_1_"><g
       id="g5"
       transform="translate(-0.45520099)"><path
         d="M 2,11.903 C 2,10.301 2.624,8.794 3.758,7.661 3.953,7.466 3.953,7.149 3.758,6.954 3.563,6.759 3.246,6.759 3.051,6.954 1.729,8.276 1,10.034 1,11.903 c 0,1.87 0.729,3.628 2.051,4.95 C 3.148,16.951 3.276,17 3.404,17 3.532,17 3.66,16.951 3.758,16.854 3.953,16.659 3.953,16.342 3.758,16.147 2.624,15.014 2,13.507 2,11.903 Z"
         id="path1" /><path
         d="m 5.172,8.368 c -0.195,-0.195 -0.512,-0.195 -0.707,0 -1.949,1.949 -1.949,5.122 0,7.071 0.098,0.098 0.226,0.146 0.354,0.146 0.128,0 0.256,-0.049 0.353,-0.146 0.195,-0.195 0.195,-0.512 0,-0.707 -1.56,-1.559 -1.56,-4.098 0,-5.657 0.195,-0.195 0.195,-0.511 0,-0.707 z"
         id="path2" /><path
         d="m 21.949,6.954 c -0.195,-0.195 -0.512,-0.195 -0.707,0 -0.195,0.195 -0.195,0.512 0,0.707 1.134,1.133 1.758,2.64 1.758,4.242 0,1.603 -0.624,3.11 -1.758,4.243 -0.195,0.195 -0.195,0.512 0,0.707 0.098,0.098 0.226,0.147 0.354,0.147 0.128,0 0.256,-0.049 0.354,-0.146 1.322,-1.322 2.051,-3.08 2.051,-4.95 C 24,10.034 23.271,8.276 21.949,6.954 Z"
         id="path3" /><path
         d="m 20.535,8.368 c -0.195,-0.195 -0.512,-0.195 -0.707,0 -0.195,0.195 -0.195,0.512 0,0.707 1.56,1.56 1.56,4.098 0,5.657 -0.195,0.195 -0.195,0.512 0,0.707 0.098,0.098 0.226,0.146 0.354,0.146 0.128,0 0.256,-0.049 0.354,-0.146 1.948,-1.949 1.948,-5.122 -0.001,-7.071 z"
         id="path4" /><g
         id="g7"><path
           d="m 16.5,0 h -8 C 7.121,0 6,1.121 6,2.5 v 19 C 6,22.879 7.121,24 8.5,24 h 8 C 17.879,24 19,22.879 19,21.5 V 2.5 C 19,1.121 17.879,0 16.5,0 Z m -5,2 h 2 C 13.776,2 14,2.224 14,2.5 14,2.776 13.776,3 13.5,3 h -2 C 11.224,3 11,2.776 11,2.5 11,2.224 11.224,2 11.5,2 Z m 1,20 c -0.552,0 -1,-0.448 -1,-1 0,-0.552 0.448,-1 1,-1 0.552,0 1,0.448 1,1 0,0.552 -0.448,1 -1,1 z"
           id="path5"
           sodipodi:nodetypes="sssssssssssssssssssss" /></g></g><g
       id="g6"
       transform="matrix(0.59045792,0,0,0.59045792,16.121166,5.6386441)"
       style="fill:#ffffff;fill-opacity:1;stroke:none;stroke-opacity:1"><path
         d="m -1,7 a 1,1 0 0 1 1,1 v 5 a 1,1 0 0 1 -1,1 h -12 a 1,1 0 0 1 -1,-1 V 8 a 1,1 0 0 1 1,-1 z M -13,6 a 2,2 0 0 0 -2,2 v 5 a 2,2 0 0 0 2,2 H -1 A 2,2 0 0 0 1,13 V 8 A 2,2 0 0 0 -1,6 Z"
         id="path1-3"
         style="fill:#ffffff;fill-opacity:1;stroke:none;stroke-opacity:1" /><path
         d="M -2,12.25 A 0.25,0.25 0 0 1 -1.75,12 h 0.5 A 0.25,0.25 0 0 1 -1,12.25 v 0.5 A 0.25,0.25 0 0 1 -1.25,13 h -0.5 A 0.25,0.25 0 0 1 -2,12.75 Z m 0,-2 A 0.25,0.25 0 0 1 -1.75,10 h 0.5 A 0.25,0.25 0 0 1 -1,10.25 v 0.5 A 0.25,0.25 0 0 1 -1.25,11 h -0.5 A 0.25,0.25 0 0 1 -2,10.75 Z m -5,0 A 0.25,0.25 0 0 1 -6.75,10 h 0.5 A 0.25,0.25 0 0 1 -6,10.25 v 0.5 A 0.25,0.25 0 0 1 -6.25,11 h -0.5 A 0.25,0.25 0 0 1 -7,10.75 Z m 2,0 A 0.25,0.25 0 0 1 -4.75,10 h 1.5 A 0.25,0.25 0 0 1 -3,10.25 v 0.5 A 0.25,0.25 0 0 1 -3.25,11 h -1.5 A 0.25,0.25 0 0 1 -5,10.75 Z m 1,2 A 0.25,0.25 0 0 1 -3.75,12 h 0.5 A 0.25,0.25 0 0 1 -3,12.25 v 0.5 A 0.25,0.25 0 0 1 -3.25,13 h -0.5 A 0.25,0.25 0 0 1 -4,12.75 Z m -5,-2 A 0.25,0.25 0 0 1 -8.75,10 h 0.5 A 0.25,0.25 0 0 1 -8,10.25 v 0.5 A 0.25,0.25 0 0 1 -8.25,11 h -0.5 A 0.25,0.25 0 0 1 -9,10.75 Z m -2,0 A 0.25,0.25 0 0 1 -10.75,10 h 0.5 a 0.25,0.25 0 0 1 0.25,0.25 v 0.5 A 0.25,0.25 0 0 1 -10.25,11 h -0.5 A 0.25,0.25 0 0 1 -11,10.75 Z m -2,0 A 0.25,0.25 0 0 1 -12.75,10 h 0.5 a 0.25,0.25 0 0 1 0.25,0.25 v 0.5 A 0.25,0.25 0 0 1 -12.25,11 h -0.5 A 0.25,0.25 0 0 1 -13,10.75 Z m 11,-2 A 0.25,0.25 0 0 1 -1.75,8 h 0.5 A 0.25,0.25 0 0 1 -1,8.25 v 0.5 A 0.25,0.25 0 0 1 -1.25,9 h -0.5 A 0.25,0.25 0 0 1 -2,8.75 Z m -2,0 A 0.25,0.25 0 0 1 -3.75,8 h 0.5 A 0.25,0.25 0 0 1 -3,8.25 v 0.5 A 0.25,0.25 0 0 1 -3.25,9 h -0.5 A 0.25,0.25 0 0 1 -4,8.75 Z m -2,0 A 0.25,0.25 0 0 1 -5.75,8 h 0.5 A 0.25,0.25 0 0 1 -5,8.25 v 0.5 A 0.25,0.25 0 0 1 -5.25,9 h -0.5 A 0.25,0.25 0 0 1 -6,8.75 Z m -2,0 A 0.25,0.25 0 0 1 -7.75,8 h 0.5 A 0.25,0.25 0 0 1 -7,8.25 v 0.5 A 0.25,0.25 0 0 1 -7.25,9 h -0.5 A 0.25,0.25 0 0 1 -8,8.75 Z m -2,0 A 0.25,0.25 0 0 1 -9.75,8 h 0.5 A 0.25,0.25 0 0 1 -9,8.25 v 0.5 A 0.25,0.25 0 0 1 -9.25,9 h -0.5 A 0.25,0.25 0 0 1 -10,8.75 Z m -3,0 A 0.25,0.25 0 0 1 -12.75,8 h 1.5 A 0.25,0.25 0 0 1 -11,8.25 v 0.5 A 0.25,0.25 0 0 1 -11.25,9 h -1.5 A 0.25,0.25 0 0 1 -13,8.75 Z m 0,4 A 0.25,0.25 0 0 1 -12.75,12 h 0.5 a 0.25,0.25 0 0 1 0.25,0.25 v 0.5 A 0.25,0.25 0 0 1 -12.25,13 h -0.5 A 0.25,0.25 0 0 1 -13,12.75 Z m 2,0 A 0.25,0.25 0 0 1 -10.75,12 h 5.5 A 0.25,0.25 0 0 1 -5,12.25 v 0.5 A 0.25,0.25 0 0 1 -5.25,13 h -5.5 A 0.25,0.25 0 0 1 -11,12.75 Z"
         id="path2-6"
         style="fill:#ffffff;fill-opacity:1;stroke:none;stroke-opacity:1" /></g><rect
       style="fill:#ffffff;fill-opacity:1;stroke:none;stroke-width:0;stroke-linecap:round;stroke-linejoin:round;stroke-miterlimit:4.9;stroke-opacity:1;paint-order:markers fill stroke"
       id="rect7"
       width="3.5477254"
       height="1.3507239"
       x="10.166359"
       y="1.7979568"
       ry="0.67536193" /></g><g
     id="Invisible_Shape"><rect
       fill="none"
       height="24"
       width="24"
       id="rect5" /></g><path
     style="fill:#ffffff;fill-opacity:1;stroke:none;stroke-width:0;stroke-linecap:round;stroke-linejoin:round;stroke-miterlimit:4.9;stroke-opacity:1;paint-order:markers fill stroke"
     id="path7"
     sodipodi:type="arc"
     sodipodi:cx="12.023746"
     sodipodi:cy="21.034943"
     sodipodi:rx="1.1531"
     sodipodi:ry="1.1531"
     sodipodi:start="6.2126157"
     sodipodi:end="6.1970136"
     sodipodi:open="true"
     sodipodi:arc-type="arc"
     d="m 13.173975,20.953636 a 1.1531,1.1531 0 0 1 -1.064437,1.231211 1.1531,1.1531 0 0 1 -1.235353,-1.059628 1.1531,1.1531 0 0 1 1.054801,-1.239476 1.1531,1.1531 0 0 1 1.243581,1.049958" /></svg>
